# xmcd
#
# Track frame offsets: 
#        300
#        20110
#        36473
#        53506
#        77994
#        94065
#        110694
#        124785
#        143063
#        159553
#        184223
#        198089
#
# Disc length: 2855 seconds
#
# Revision: 0
# Processed by: cddbd v1.5.2PL0 Copyright (c) Steve Scherf et al.
# Submitted via: ExactAudioCopy v1.0b1
#
DISCID=a60b230c
DTITLE=Terry Davidson and The Gears - Damnation Blues
DYEAR=2010
DGENRE=General Blues
TTITLE0=Damnation Blues
TTITLE1=Rat Rod
TTITLE2=Devil's Prize
TTITLE3=High and Lonesome
TTITLE4=World's Last GTO
TTITLE5=Quittin' Time
TTITLE6=Three Angels
TTITLE7=Dog Crazy
TTITLE8=How Long Can This Go on?
TTITLE9=Black Cat Boogie
TTITLE10=Little Abigail
TTITLE11=High Test Love
EXTD=
EXTT0=
EXTT1=
EXTT2=
EXTT3=
EXTT4=
EXTT5=
EXTT6=
EXTT7=
EXTT8=
EXTT9=
EXTT10=
EXTT11=
PLAYORDER=
